<?xml version="1.0" encoding="utf-8"?>
<!-- Generator: Adobe Illustrator 16.0.0, SVG Export Plug-In . SVG Version: 6.00 Build 0)  -->
<!DOCTYPE svg PUBLIC "-//W3C//DTD SVG 1.1//EN" "http://www.w3.org/Graphics/SVG/1.1/DTD/svg11.dtd">
<svg version="1.1" id="Layer_1" xmlns="http://www.w3.org/2000/svg" xmlns:xlink="http://www.w3.org/1999/xlink" x="0px" y="0px"
	 width="900px" height="900px" viewBox="0 0 900 900" enable-background="new 0 0 900 900" xml:space="preserve">
<g id="XMLID_1_">
	<g>
		<path fill="#E5218A" d="M450,450l267.99,574.71c-33.16,15.49-67.88,28.19-103.87,37.8L450,450z"/>
		<path fill="#E5218A" d="M450,450l519.37,363.66c-21.23,30.25-45.03,58.57-71.09,84.62L450,450z"/>
		<path fill="#E5218A" d="M450,450l631.59,55.26c-3.22,37.311-9.67,73.69-19.08,108.86L450,450z"/>
		<path fill="#E5218A" d="M1062.51,285.88L450,450l0.01-0.01l574.7-267.98C1040.2,215.17,1052.9,249.89,1062.51,285.88z"/>
		<path fill="#E5218A" d="M898.28,1.72L450.01,449.99L813.66-69.37C843.91-48.14,872.23-24.34,898.28,1.72z"/>
		<path fill="#E5218A" d="M614.12-162.51L450,449.99l55.26-631.58C542.57-178.37,578.95-171.92,614.12-162.51z"/>
		<path fill="#E5218A" d="M394.74-181.59L450,449.99l-164.12-612.5C321.05-171.92,357.43-178.37,394.74-181.59z"/>
		<path fill="#E5218A" d="M450,449.99V450h-0.01L1.72,1.72c25.97-25.97,54.18-49.7,84.32-70.87L450,449.99z"/>
		<path fill="#E5218A" d="M-124.71,182.01L449.99,450l-612.5-164.12C-152.9,249.89-140.2,215.17-124.71,182.01z"/>
		<path fill="#E5218A" d="M449.99,450l-612.5,164.12c-9.41-35.17-15.86-71.55-19.08-108.86L449.99,450z"/>
		<path fill="#E5218A" d="M449.99,450.01L1.72,898.28c-26.06-26.05-49.86-54.37-71.09-84.62L449.99,450.01z"/>
		<path fill="#E5218A" d="M450,450l-164.12,612.51c-35.99-9.609-70.71-22.31-103.87-37.8l267.98-574.7L450,450z"/>
		<path fill="#E21E5E" d="M717.99-124.71l-267.98,574.7H450l164.12-612.5C650.11-152.9,684.83-140.2,717.99-124.71z"/>
		<path fill="#E21E5E" d="M969.36,86.34L450.01,449.99L898.28,1.72C924.34,27.77,948.14,56.09,969.36,86.34z"/>
		<path fill="#E21E5E" d="M1081.59,394.74L450,450l612.51-164.12C1071.92,321.05,1078.37,357.43,1081.59,394.74z"/>
		<path fill="#E21E5E" d="M450,450l612.51,164.12c-9.609,35.99-22.31,70.71-37.8,103.87L450,450z"/>
		<path fill="#E21E5E" d="M450,450l448.28,448.28c-25.971,25.97-54.181,49.7-84.32,70.87L450,450z"/>
		<path fill="#E21E5E" d="M285.88-162.51L450,449.99l-267.99-574.7C215.17-140.2,249.89-152.9,285.88-162.51z"/>
		<path fill="#E21E5E" d="M1.72,1.72L449.99,450L-69.37,86.34C-48.14,56.09-24.34,27.77,1.72,1.72z"/>
		<path fill="#E21E5E" d="M449.99,450l-631.58-55.26c3.22-37.31,9.67-73.69,19.08-108.86L449.99,450z"/>
		<path fill="#E21E5E" d="M449.99,450v0.01l-574.7,267.98c-15.49-33.16-28.19-67.88-37.8-103.87L449.99,450z"/>
		<path fill="#E21E5E" d="M1.72,898.28L449.99,450.01L86.34,969.36C56.09,948.14,27.77,924.34,1.72,898.28z"/>
		<path fill="#E21E5E" d="M450,450l164.12,612.51c-35.17,9.41-71.55,15.86-108.86,19.08L450,450z"/>
		<path fill="#E21E5E" d="M450,450l-55.26,631.59c-37.31-3.22-73.69-9.67-108.86-19.08L450,450z"/>
		<path fill="#5CB6D0" d="M450,450l363.96,519.15c-30.16,21.189-62.26,39.81-95.97,55.56L450,450z"/>
		<path fill="#5CB6D0" d="M450,450l574.71,267.99c-15.69,33.6-34.25,65.6-55.34,95.67L450,450z"/>
		<path fill="#5CB6D0" d="M1081.59,394.74c1.58,18.21,2.38,36.64,2.38,55.26s-0.8,37.05-2.38,55.26L450,450L1081.59,394.74z"/>
		<path fill="#5CB6D0" d="M1024.71,182.01l-574.7,267.98L969.36,86.34C990.46,116.41,1009.02,148.41,1024.71,182.01z"/>
		<path fill="#5CB6D0" d="M813.66-69.37L450.01,449.99l267.98-574.7C751.59-109.02,783.59-90.46,813.66-69.37z"/>
		<path fill="#5CB6D0" d="M505.26-181.59L450,449.99l-55.26-631.58c18.21-1.58,36.64-2.38,55.26-2.38S487.05-183.17,505.26-181.59z"
			/>
		<path fill="#5CB6D0" d="M450,449.99L86.04-69.15c30.16-21.19,62.26-39.81,95.97-55.56L450,449.99z"/>
		<path fill="#5CB6D0" d="M-69.37,86.34L449.99,450l-574.7-267.99C-109.02,148.41-90.46,116.41-69.37,86.34z"/>
		<path fill="#5CB6D0" d="M449.99,450l-631.58,55.26c-1.58-18.21-2.38-36.64-2.38-55.26s0.8-37.05,2.38-55.26L449.99,450z"/>
		<path fill="#5CB6D0" d="M449.99,450.01L-69.37,813.66c-21.09-30.07-39.65-62.07-55.34-95.67L449.99,450.01z"/>
		<path fill="#5CB6D0" d="M449.99,450.01l-267.98,574.7c-33.6-15.69-65.6-34.25-95.67-55.35L449.99,450.01z"/>
		<path fill="#5CB6D0" d="M450,450l55.26,631.59c-18.21,1.58-36.64,2.38-55.26,2.38s-37.05-0.8-55.26-2.38L450,450z"/>
	</g>
	<g>
		<polyline fill="none" stroke="#FBB03B" stroke-width="2.8346" stroke-miterlimit="10" points="450,450 898.28,898.28 900,900 		
			"/>
		<polyline fill="none" stroke="#FBB03B" stroke-width="2.8346" stroke-miterlimit="10" points="0,0 1.72,1.72 449.99,450 		"/>
		<polyline fill="none" stroke="#FBB03B" stroke-width="2.8346" stroke-miterlimit="10" points="449.99,450 -69.37,86.34 
			-71.31,84.98 		"/>
		<polyline fill="none" stroke="#FBB03B" stroke-width="2.8346" stroke-miterlimit="10" points="971.31,815.02 969.37,813.66 
			450,450 		"/>
		<polyline fill="none" stroke="#FBB03B" stroke-width="2.8346" stroke-miterlimit="10" points="449.99,450 -124.71,182.01 
			-126.77,181.05 		"/>
		<polyline fill="none" stroke="#FBB03B" stroke-width="2.8346" stroke-miterlimit="10" points="1026.77,718.95 1024.71,717.99 
			450,450 		"/>
		<polyline fill="none" stroke="#FBB03B" stroke-width="2.8346" stroke-miterlimit="10" points="449.99,450 -162.51,285.88 
			-164.71,285.29 		"/>
		<polyline fill="none" stroke="#FBB03B" stroke-width="2.8346" stroke-miterlimit="10" points="1064.71,614.71 1062.51,614.12 
			450,450 		"/>
		<polyline fill="none" stroke="#FBB03B" stroke-width="2.8346" stroke-miterlimit="10" points="449.99,450 -181.59,394.74 
			-183.97,394.53 		"/>
		<polyline fill="none" stroke="#FBB03B" stroke-width="2.8346" stroke-miterlimit="10" points="1083.97,505.47 1081.59,505.26 
			450,450 		"/>
		<polyline fill="none" stroke="#FBB03B" stroke-width="2.8346" stroke-miterlimit="10" points="449.99,450 -181.59,505.26 
			-183.97,505.47 		"/>
		<polyline fill="none" stroke="#FBB03B" stroke-width="2.8346" stroke-miterlimit="10" points="1083.97,394.53 1081.59,394.74 
			450,450 		"/>
		<polyline fill="none" stroke="#FBB03B" stroke-width="2.8346" stroke-miterlimit="10" points="449.99,450 -162.51,614.12 
			-164.71,614.71 		"/>
		<polyline fill="none" stroke="#FBB03B" stroke-width="2.8346" stroke-miterlimit="10" points="1064.71,285.29 1062.51,285.88 
			450,450 		"/>
		<polyline fill="none" stroke="#FBB03B" stroke-width="2.8346" stroke-miterlimit="10" points="449.99,450.01 -124.71,717.99 
			-126.77,718.95 		"/>
		<polyline fill="none" stroke="#FBB03B" stroke-width="2.8346" stroke-miterlimit="10" points="1026.77,181.05 1024.71,182.01 
			450.01,449.99 		"/>
		<polyline fill="none" stroke="#FBB03B" stroke-width="2.8346" stroke-miterlimit="10" points="449.99,450.01 -69.37,813.66 
			-71.31,815.02 		"/>
		<polyline fill="none" stroke="#FBB03B" stroke-width="2.8346" stroke-miterlimit="10" points="971.3,84.98 969.36,86.34 
			450.01,449.99 		"/>
		<polyline fill="none" stroke="#FBB03B" stroke-width="2.8346" stroke-miterlimit="10" points="449.99,450.01 1.72,898.28 0,900 		
			"/>
		<polyline fill="none" stroke="#FBB03B" stroke-width="2.8346" stroke-miterlimit="10" points="900,0 898.28,1.72 450.01,449.99 
			450,450 		"/>
		<polyline fill="none" stroke="#FBB03B" stroke-width="2.8346" stroke-miterlimit="10" points="450,450 449.99,450 449.99,450.01 
			86.34,969.36 84.98,971.3 		"/>
		<polyline fill="none" stroke="#FBB03B" stroke-width="2.8346" stroke-miterlimit="10" points="815.02,-71.31 813.66,-69.37 
			450.01,449.99 		"/>
		<polyline fill="none" stroke="#FBB03B" stroke-width="2.8346" stroke-miterlimit="10" points="450,450 449.99,450.01 
			182.01,1024.71 181.05,1026.77 		"/>
		<polyline fill="none" stroke="#FBB03B" stroke-width="2.8346" stroke-miterlimit="10" points="718.95,-126.77 717.99,-124.71 
			450.01,449.99 450,449.99 		"/>
		<polyline fill="none" stroke="#FBB03B" stroke-width="2.8346" stroke-miterlimit="10" points="450,450 285.88,1062.51 
			285.29,1064.71 		"/>
		<polyline fill="none" stroke="#FBB03B" stroke-width="2.8346" stroke-miterlimit="10" points="614.71,-164.71 614.12,-162.51 
			450,449.99 		"/>
		<polyline fill="none" stroke="#FBB03B" stroke-width="2.8346" stroke-miterlimit="10" points="450,450 394.74,1081.59 
			394.53,1083.97 		"/>
		<polyline fill="none" stroke="#FBB03B" stroke-width="2.8346" stroke-miterlimit="10" points="505.47,-183.97 505.26,-181.59 
			450,449.99 		"/>
		<polyline fill="none" stroke="#FBB03B" stroke-width="2.8346" stroke-miterlimit="10" points="450,450 505.26,1081.59 
			505.47,1083.97 		"/>
		<polyline fill="none" stroke="#FBB03B" stroke-width="2.8346" stroke-miterlimit="10" points="394.53,-183.97 394.74,-181.59 
			450,449.99 		"/>
		<polyline fill="none" stroke="#FBB03B" stroke-width="2.8346" stroke-miterlimit="10" points="450,450 614.12,1062.51 
			614.71,1064.71 		"/>
		<polyline fill="none" stroke="#FBB03B" stroke-width="2.8346" stroke-miterlimit="10" points="285.29,-164.71 285.88,-162.51 
			450,449.99 		"/>
		<polyline fill="none" stroke="#FBB03B" stroke-width="2.8346" stroke-miterlimit="10" points="450,450 717.99,1024.71 
			718.95,1026.77 		"/>
		<polyline fill="none" stroke="#FBB03B" stroke-width="2.8346" stroke-miterlimit="10" points="181.05,-126.77 182.01,-124.71 
			450,449.99 		"/>
		<polyline fill="none" stroke="#FBB03B" stroke-width="2.8346" stroke-miterlimit="10" points="84.68,-71.09 86.04,-69.15 
			450,449.99 450,450 813.96,969.15 815.32,971.09 		"/>
	</g>
</g>
</svg>
