<?xml version="1.0" encoding="utf-8"?>
<!-- Generator: Adobe Illustrator 16.0.0, SVG Export Plug-In . SVG Version: 6.00 Build 0)  -->
<!DOCTYPE svg PUBLIC "-//W3C//DTD SVG 1.1//EN" "http://www.w3.org/Graphics/SVG/1.1/DTD/svg11.dtd">
<svg version="1.1" xmlns="http://www.w3.org/2000/svg" xmlns:xlink="http://www.w3.org/1999/xlink" x="0px" y="0px" width="1350px"
	 height="1350px" viewBox="0 0 1350 1350" enable-background="new 0 0 1350 1350" xml:space="preserve">
<g id="Layer_1">
	<g id="XMLID_1_">
		<g>
			<path fill="#E21E5E" d="M675,675l672.42,672.42c-27.72,27.735-57.15,53.76-88.125,77.91L675,675z"/>
			<path fill="#5CB6D0" d="M1259.295,1425.33c-38.52,30.045-79.425,57.195-122.385,81.104L675,675L1259.295,1425.33z"/>
			<path fill="#5CB6D0" d="M1622.385,592.11c2.37,27.315,3.57,54.96,3.57,82.89c0,27.93-1.2,55.575-3.57,82.89L675,675
				L1622.385,592.11z"/>
			<path fill="#E21E5E" d="M1622.385,592.11L675,675l918.765-246.18C1607.88,481.575,1617.555,536.145,1622.385,592.11z"/>
			<path fill="#E5218A" d="M675,675l947.385,82.89c-4.83,55.966-14.505,110.535-28.62,163.29L675,675z"/>
			<path fill="#E5218A" d="M1593.765,428.82L675,675l0.015-0.015l862.05-401.97C1560.3,322.755,1579.35,374.835,1593.765,428.82z"/>
			<path fill="#E21E5E" d="M675,675l918.765,246.18c-14.415,53.985-33.465,106.065-56.699,155.806L675,675z"/>
			<path fill="#5CB6D0" d="M1537.065,273.015l-862.05,401.97L1454.04,129.51C1485.69,174.615,1513.53,222.615,1537.065,273.015z"/>
			<path fill="#5CB6D0" d="M675,675l862.065,401.985c-23.535,50.399-51.375,98.399-83.011,143.505L675,675z"/>
			<path fill="#E5218A" d="M675,675l779.055,545.49c-31.845,45.375-67.545,87.854-106.635,126.93L675,675z"/>
			<path fill="#E21E5E" d="M1454.04,129.51L675.015,674.985L1347.42,2.58C1386.51,41.655,1422.21,84.135,1454.04,129.51z"/>
			<path fill="#FFFFFF" d="M1347.42,2.58L675.015,674.985L675,675h-0.015L2.58,2.58C174.66-169.515,412.41-275.955,675-275.955
				S1175.34-169.515,1347.42,2.58z"/>
			<path fill="#E5218A" d="M675,675l461.91,831.435c-51,28.396-104.88,52.23-161.115,70.966L675,675z"/>
			<path fill="#E21E5E" d="M675,675l300.795,902.4c-62.61,20.864-128.115,35.385-195.765,42.824L675,675z"/>
			<path fill="#5CB6D0" d="M675,675l105.03,945.225c-34.485,3.78-69.54,5.73-105.03,5.73s-70.545-1.95-105.03-5.73L675,675z"/>
			<path fill="#E21E5E" d="M675,675l-105.03,945.225c-67.65-7.439-133.155-21.96-195.765-42.824L675,675z"/>
			<path fill="#E5218A" d="M675,675l-300.795,902.4c-56.235-18.735-110.115-42.57-161.115-70.966l461.895-831.419L675,675z"/>
			<path fill="#E21E5E" d="M2.58,2.58L674.985,675l-779.04-545.49C-72.21,84.135-36.51,41.655,2.58,2.58z"/>
			<path fill="#5CB6D0" d="M-104.055,129.51L674.985,675l-862.05-401.985C-163.53,222.615-135.69,174.615-104.055,129.51z"/>
			<path fill="#5CB6D0" d="M674.985,675.015L213.09,1506.435c-42.795-23.819-83.55-50.85-121.95-80.76L674.985,675.015z"/>
			<path fill="#E5218A" d="M-187.065,273.015L674.985,675l-918.75-246.18C-229.35,374.835-210.3,322.755-187.065,273.015z"/>
			<path fill="#E21E5E" d="M674.985,675v0.015l-862.05,401.97c-23.235-49.74-42.285-101.82-56.7-155.806L674.985,675z"/>
			<path fill="#E21E5E" d="M674.985,675.015L91.14,1425.675c-31.125-24.255-60.705-50.399-88.56-78.255L674.985,675.015z"/>
			<path fill="#E5218A" d="M674.985,675.015L2.58,1347.42c-39.09-39.075-74.79-81.555-106.635-126.93L674.985,675.015z"/>
			<path fill="#E5218A" d="M674.985,675l-918.75,246.18c-14.115-52.755-23.79-107.324-28.62-163.29L674.985,675z"/>
			<path fill="#5CB6D0" d="M674.985,675l-947.37,82.89c-2.37-27.314-3.57-54.96-3.57-82.89c0-27.93,1.2-55.575,3.57-82.89
				L674.985,675z"/>
			<path fill="#E21E5E" d="M674.985,675l-947.37-82.89c4.83-55.965,14.505-110.535,28.62-163.29L674.985,675z"/>
			<path fill="#5CB6D0" d="M674.985,675.015l-779.04,545.475c-31.635-45.105-59.475-93.105-83.01-143.505L674.985,675.015z"/>
		</g>
		<g>
			<polyline fill="none" stroke="#FBB03B" stroke-width="2.8346" stroke-miterlimit="10" points="675,675 1347.42,1347.42 
				1350,1350 			"/>
			<polyline fill="none" stroke="#FBB03B" stroke-width="2.8346" stroke-miterlimit="10" points="0,0 2.58,2.58 674.985,675 			"/>
			<polyline fill="none" stroke="#FBB03B" stroke-width="2.8346" stroke-miterlimit="10" points="674.985,675 -104.055,129.51 
				-106.965,127.47 			"/>
			<polyline fill="none" stroke="#FBB03B" stroke-width="2.8346" stroke-miterlimit="10" points="1456.965,1222.53 
				1454.055,1220.49 675,675 			"/>
			<polyline fill="none" stroke="#FBB03B" stroke-width="2.8346" stroke-miterlimit="10" points="674.985,675 -187.065,273.015 
				-190.155,271.575 			"/>
			<polyline fill="none" stroke="#FBB03B" stroke-width="2.8346" stroke-miterlimit="10" points="1540.155,1078.425 
				1537.065,1076.985 675,675 			"/>
			<polyline fill="none" stroke="#FBB03B" stroke-width="2.8346" stroke-miterlimit="10" points="674.985,675 -243.765,428.82 
				-247.065,427.935 			"/>
			<polyline fill="none" stroke="#FBB03B" stroke-width="2.8346" stroke-miterlimit="10" points="1597.065,922.065 1593.765,921.18 
				675,675 			"/>
			<polyline fill="none" stroke="#FBB03B" stroke-width="2.8346" stroke-miterlimit="10" points="674.985,675 -272.385,592.11 
				-275.955,591.795 			"/>
			<polyline fill="none" stroke="#FBB03B" stroke-width="2.8346" stroke-miterlimit="10" points="1625.955,758.205 1622.385,757.89 
				675,675 			"/>
			<polyline fill="none" stroke="#FBB03B" stroke-width="2.8346" stroke-miterlimit="10" points="674.985,675 -272.385,757.89 
				-275.955,758.205 			"/>
			<polyline fill="none" stroke="#FBB03B" stroke-width="2.8346" stroke-miterlimit="10" points="1625.955,591.795 1622.385,592.11 
				675,675 			"/>
			<polyline fill="none" stroke="#FBB03B" stroke-width="2.8346" stroke-miterlimit="10" points="674.985,675 -243.765,921.18 
				-247.065,922.065 			"/>
			<polyline fill="none" stroke="#FBB03B" stroke-width="2.8346" stroke-miterlimit="10" points="1597.065,427.935 1593.765,428.82 
				675,675 			"/>
			<polyline fill="none" stroke="#FBB03B" stroke-width="2.8346" stroke-miterlimit="10" points="674.985,675.015 
				-187.065,1076.985 -190.155,1078.425 			"/>
			<polyline fill="none" stroke="#FBB03B" stroke-width="2.8346" stroke-miterlimit="10" points="1540.155,271.575 
				1537.065,273.015 675.015,674.985 			"/>
			<polyline fill="none" stroke="#FBB03B" stroke-width="2.8346" stroke-miterlimit="10" points="675,675 674.985,675 
				674.985,675.015 -104.055,1220.49 -106.965,1222.53 			"/>
			<polyline fill="none" stroke="#FBB03B" stroke-width="2.8346" stroke-miterlimit="10" points="1456.95,127.47 1454.04,129.51 
				675.015,674.985 			"/>
			<polyline fill="none" stroke="#FBB03B" stroke-width="2.8346" stroke-miterlimit="10" points="674.985,675.015 2.58,1347.42 
				0,1350 			"/>
			<polyline fill="none" stroke="#FBB03B" stroke-width="2.8346" stroke-miterlimit="10" points="1350,0 1347.42,2.58 
				675.015,674.985 675,675 			"/>
			<polyline fill="none" stroke="#FBB03B" stroke-width="2.8346" stroke-miterlimit="10" points="674.985,675.015 91.14,1425.675 
				88.935,1428.51 			"/>
			<polyline fill="none" stroke="#FBB03B" stroke-width="2.8346" stroke-miterlimit="10" points="675,675 674.985,675.015 
				213.09,1506.435 211.41,1509.465 			"/>
			<polyline fill="none" stroke="#FBB03B" stroke-width="2.8346" stroke-miterlimit="10" points="675,675 374.205,1577.4 
				373.14,1580.61 			"/>
			<polyline fill="none" stroke="#FBB03B" stroke-width="2.8346" stroke-miterlimit="10" points="675,675 569.97,1620.225 
				569.58,1623.75 			"/>
			<polyline fill="none" stroke="#FBB03B" stroke-width="2.8346" stroke-miterlimit="10" points="675,675 780.03,1620.225 
				780.42,1623.75 			"/>
			<polyline fill="none" stroke="#FBB03B" stroke-width="2.8346" stroke-miterlimit="10" points="675,675 975.795,1577.4 
				976.86,1580.61 			"/>
			<polyline fill="none" stroke="#FBB03B" stroke-width="2.8346" stroke-miterlimit="10" points="675,675 1136.91,1506.435 
				1138.59,1509.465 			"/>
			<polyline fill="none" stroke="#FBB03B" stroke-width="2.8346" stroke-miterlimit="10" points="675,675 1259.295,1425.33 
				1261.5,1428.165 			"/>
		</g>
	</g>
	<rect x="225" y="225" fill="#FFFFFF" width="900" height="900"/>
</g>
<g id="Layer_2">
	<g id="XMLID_3_">
		<g>
			<path fill="#FFFFFF" d="M1349.25,619.605c0.495,18.27,0.75,36.735,0.75,55.395s-0.255,37.125-0.75,55.395V619.605z"/>
			<path fill="#FFFFFF" d="M1349.25,1135.665v215.085H1125V1350c44.325,0,85.635-38.34,120.42-104.58
				C1306.32,1213.44,1343.64,1175.94,1349.25,1135.665z"/>
			<path fill="#FFFFFF" d="M1349.25,730.395v405.271c-5.61,40.275-42.93,77.775-103.83,109.755
				C1303.425,1135.08,1343.4,947.325,1349.25,730.395z"/>
			<path fill="#FFFFFF" d="M1349.25,214.335v405.27c-5.85-216.93-45.825-404.685-103.83-515.025
				C1306.32,136.56,1343.64,174.06,1349.25,214.335z"/>
			<path fill="#FFFFFF" d="M1349.25,0.75v213.585c-5.61-40.275-42.93-77.775-103.83-109.755
				c-31.979-60.9-69.479-98.22-109.755-103.83H1349.25z"/>
			<path fill="#FFFFFF" d="M1245.42,104.58C1135.08,46.575,947.325,6.6,730.395,0.75h405.271
				C1175.94,6.36,1213.44,43.68,1245.42,104.58z"/>
			<path fill="#FFFFFF" d="M675,1350c240.135,0,450.795-41.685,570.42-104.58C1210.635,1311.66,1169.325,1350,1125,1350v0.75H675
				V1350z"/>
			<path fill="#FFFFFF" d="M730.395,0.75h-110.79C637.875,0.255,656.34,0,675,0S712.125,0.255,730.395,0.75z"/>
			<path fill="#FFFFFF" d="M675,1350v0.75H225V1350c-44.325,0-85.635-38.34-120.42-104.58C224.205,1308.315,434.865,1350,675,1350z"
				/>
			<path fill="#FFFFFF" d="M214.38,0.75h405.225c-216.93,5.85-404.7,45.825-515.04,103.83c14.49-27.555,30.09-50.295,46.575-67.44
				C171.09,16.395,192.315,3.81,214.38,0.75z"/>
			<path fill="#FFFFFF" d="M225,1350v0.75H-0.75V1125H0c0,44.325,38.34,85.635,104.58,120.42C139.365,1311.66,180.675,1350,225,1350
				z"/>
			<path fill="#FFFFFF" d="M-0.75,0.75h215.13c-22.065,3.06-43.29,15.645-63.24,36.39c-16.485,17.145-32.085,39.885-46.575,67.44
				C38.34,139.38,0,180.675,0,225h-0.75V0.75z"/>
			<path fill="#FFFFFF" d="M0,675c0,240.135,41.685,450.795,104.58,570.42C38.34,1210.635,0,1169.325,0,1125h-0.75V675H0z"/>
			<path fill="#FFFFFF" d="M104.565,104.58C41.685,224.22,0,434.865,0,675h-0.75V225H0C0,180.675,38.34,139.38,104.565,104.58z"/>
		</g>
		<g>
		</g>
	</g>
</g>
</svg>
